<svg width="16" height="16" viewBox="0 0 16 16" fill="none" xmlns="http://www.w3.org/2000/svg">
<path fill-rule="evenodd" clip-rule="evenodd" d="M3.31045 3.35578C4.64681 3.22082 5.98334 3.15332 7.31996 3.15332C9.56355 3.15332 11.8133 3.26751 14.0493 3.48909C14.3241 3.51632 14.5248 3.76117 14.4975 4.03596C14.4703 4.31076 14.2254 4.51145 13.9507 4.48422C11.7466 4.26579 9.52971 4.15332 7.31996 4.15332C6.01683 4.15332 4.7136 4.21913 3.41021 4.35079L3.40875 4.35093L2.04875 4.48427C1.77392 4.51121 1.52929 4.31026 1.50235 4.03544C1.4754 3.76061 1.67635 3.51598 1.95117 3.48904L3.31045 3.35578Z" fill="black"/>
<path fill-rule="evenodd" clip-rule="evenodd" d="M6.30635 2.52308L6.15972 3.39618C6.11399 3.66851 5.85615 3.8522 5.58382 3.80647C5.31149 3.76073 5.1278 3.50289 5.17353 3.23056L5.3202 2.35723C5.32276 2.34202 5.3254 2.32609 5.32807 2.30996C5.37398 2.0327 5.44132 1.62596 5.71245 1.3185C6.02849 0.960119 6.51069 0.833374 7.12663 0.833374H8.8733C9.49673 0.833374 9.97844 0.970307 10.2926 1.33234C10.5641 1.64521 10.6298 2.05341 10.6736 2.32598C10.6757 2.33924 10.6778 2.35218 10.6799 2.36478L10.8263 3.22994C10.8724 3.50222 10.689 3.76029 10.4167 3.80636C10.1445 3.85244 9.88638 3.66907 9.8403 3.3968L9.69314 2.52717C9.63737 2.18515 9.6021 2.06239 9.53732 1.98774C9.50148 1.94644 9.37653 1.83337 8.8733 1.83337H7.12663C6.6159 1.83337 6.49476 1.9433 6.46247 1.97991C6.40106 2.04955 6.36641 2.16655 6.30635 2.52308Z" fill="black"/>
<path fill-rule="evenodd" clip-rule="evenodd" d="M12.5988 5.59444C12.8744 5.61223 13.0834 5.85004 13.0656 6.12561L12.6321 12.8417L12.6312 12.8543C12.6136 13.1052 12.5943 13.381 12.5426 13.6376C12.489 13.9038 12.3946 14.1846 12.2032 14.4338C11.8024 14.9556 11.1203 15.1667 10.14 15.1667H5.85996C4.87958 15.1667 4.19754 14.9556 3.79676 14.4338C3.60536 14.1846 3.51089 13.9038 3.4573 13.6376C3.40561 13.381 3.3863 13.1052 3.36873 12.8543L3.36766 12.8389L2.93433 6.12561C2.91654 5.85004 3.12552 5.61223 3.40108 5.59444C3.67665 5.57665 3.91447 5.78563 3.93225 6.06119L4.3654 12.7718C4.36543 12.7722 4.36547 12.7727 4.3655 12.7732C4.38431 13.0417 4.40024 13.2546 4.43762 13.4402C4.47402 13.621 4.52456 13.7397 4.58982 13.8247C4.70238 13.9712 4.98033 14.1667 5.85996 14.1667H10.14C11.0196 14.1667 11.2975 13.9712 11.4101 13.8247C11.4754 13.7397 11.5259 13.621 11.5623 13.4402C11.5997 13.2546 11.6156 13.0417 11.6344 12.7732C11.6345 12.7727 11.6345 12.7722 11.6345 12.7718L12.0677 6.06119C12.0855 5.78563 12.3233 5.57665 12.5988 5.59444Z" fill="black"/>
<path fill-rule="evenodd" clip-rule="evenodd" d="M6.38663 11C6.38663 10.7239 6.61048 10.5 6.88663 10.5H9.10663C9.38277 10.5 9.60663 10.7239 9.60663 11C9.60663 11.2761 9.38277 11.5 9.10663 11.5H6.88663C6.61048 11.5 6.38663 11.2761 6.38663 11Z" fill="black"/>
<path fill-rule="evenodd" clip-rule="evenodd" d="M5.8333 8.33337C5.8333 8.05723 6.05716 7.83337 6.3333 7.83337H9.66663C9.94277 7.83337 10.1666 8.05723 10.1666 8.33337C10.1666 8.60952 9.94277 8.83337 9.66663 8.83337H6.3333C6.05716 8.83337 5.8333 8.60952 5.8333 8.33337Z" fill="black"/>
</svg>
